<?xml version="1.0" encoding="UTF-8"?>
<svg width="96px" height="96px" viewBox="0 0 96 96" version="1.1" xmlns="http://www.w3.org/2000/svg" xmlns:xlink="http://www.w3.org/1999/xlink">
    <!-- Generator: sketchtool 53.2 (72643) - https://sketchapp.com -->
    <title>A54CC973-FA33-4145-A7C6-5DD04B5367A8</title>
    <desc>Created with sketchtool.</desc>
    <g id="Login" stroke="none" stroke-width="1" fill="none" fill-rule="evenodd">
        <g id="LOGIN_001_1024" transform="translate(-464.000000, -240.000000)">
            <g id="Group-2" transform="translate(268.000000, 192.000000)">
                <g id="Group-3" transform="translate(196.000000, 48.000000)">
                    <g id="Logos/Sanitas/endorsement">
                        <g id="Group">
                            <g id="Logo-Colour" fill="#0079C8">
                                <rect id="Rectangle" x="0" y="0" width="96" height="96"></rect>
                            </g>
                            <path d="M64.256,26.848 C63.9893333,26.848 63.648,27.0506667 63.168,27.392 C62.208,28.0746667 60.6186667,29.0666667 58.9013333,29.0666667 L42.08,29.0666667 L42.464,26.944 L58.4533333,26.944 C60.0853333,26.944 61.0773333,26.1013333 61.9413333,25.344 C62.2506667,25.0773333 62.5386667,24.832 62.8373333,24.6293333 C64.192,23.7333333 65.312,23.808 66.0693333,24.8746667 C66.7306667,25.8133333 67.072,27.52 67.4666667,29.504 C67.584,30.1226667 67.712,30.8693333 67.8506667,31.5306667 C67.8933333,31.7013333 68.096,31.7013333 68.128,31.5306667 C69.4293333,25.1093333 72.4586667,12.4693333 73.8773333,6.784 C74.4426667,4.55466667 75.328,3.76533333 75.9253333,3.76533333 C76.672,3.76533333 77.2053333,4.82133333 77.312,6.53866667 C77.5786667,10.4106667 77.9413333,23.3706667 77.9733333,25.7493333 C77.9733333,25.8026667 77.9733333,25.984 78.112,25.984 C78.1866667,25.984 78.2293333,25.9306667 78.272,25.8773333 C78.8373333,25.024 80.256,22.944 81.1413333,22.0373333 C81.792,21.3653333 82.3253333,21.056 82.8906667,21.056 C83.296,21.056 83.7333333,21.216 84.2453333,21.5573333 C84.672,21.8453333 85.0666667,22.1546667 85.4506667,22.4426667 C86.208,23.0293333 86.9333333,23.584 87.744,23.8613333 C88.4266667,24.096 89.5893333,24.1493333 90.4426667,24.1493333 C90.912,24.1493333 91.4346667,24.128 91.6266667,24.1173333 L91.264,26.0906667 C91.104,26.1013333 90.56,26.112 90.048,26.112 C89.248,26.112 88.1173333,26.0693333 87.2426667,25.824 C85.9093333,25.4613333 84.736,24.7573333 84.032,24.2453333 L83.68,24 C83.0186667,23.5413333 82.5493333,23.5413333 82.144,23.9786667 C81.8773333,24.2666667 80.96,25.632 80.1493333,26.848 L79.264,28.1493333 C78.784,28.8533333 78.1013333,29.312 77.536,29.312 C77.0453333,29.312 76.6506667,28.992 76.3946667,28.3626667 C75.9253333,27.2426667 75.616,16.256 75.5093333,10.0053333 L75.5093333,9.984 C75.5093333,9.83466667 75.424,9.77066667 75.3386667,9.77066667 C75.264,9.77066667 75.1893333,9.84533333 75.1573333,9.952 L75.0613333,10.368 C73.632,16.544 70.2293333,31.296 69.664,33.088 C69.2373333,34.4426667 68.4906667,35.3066667 67.7546667,35.3066667 C67.2746667,35.3066667 66.8586667,34.912 66.5706667,34.1973333 C65.9626667,32.6613333 65.4826667,30.3573333 65.1733333,28.8853333 L64.928,27.7866667 C64.7893333,27.2213333 64.6186667,26.848 64.256,26.848 Z M22.7306667,11.2213333 L24.704,11.2213333 L23.1146667,20.32 L22.5386667,20.32 C21.8666667,20.32 21.1626667,19.7973333 21.3333333,18.9546667 L21.3653333,18.816 C20.7893333,19.7226667 19.8293333,20.512 18.048,20.512 C16.1493333,20.512 14.272,18.816 14.6026667,15.9253333 C14.8906667,13.408 16.5973333,11.0293333 19.4666667,11.0293333 C21.0986667,11.0293333 22.112,11.8933333 22.464,12.608 L22.7306667,11.2213333 Z M18.624,18.8586667 C21.9946667,19.04 23.072,12.704 19.7546667,12.512 C16.5226667,12.3306667 15.5733333,18.688 18.624,18.8586667 Z M53.8346667,11.2213333 L55.808,11.2213333 L54.208,20.32 L53.632,20.32 C52.9706667,20.32 52.2666667,19.7973333 52.4373333,18.9546667 L52.4693333,18.816 C51.8933333,19.7226667 50.9333333,20.512 49.1413333,20.512 C47.2426667,20.512 45.376,18.816 45.7066667,15.936 C45.9946667,13.408 47.7013333,11.0293333 50.5706667,11.0293333 C52.2026667,11.0293333 53.2053333,11.8933333 53.568,12.608 L53.8346667,11.2213333 Z M49.7173333,18.8586667 C53.0986667,19.04 54.1653333,12.704 50.8586667,12.512 C47.616,12.3413333 46.6773333,18.688 49.7173333,18.8586667 Z M37.5893333,11.2106667 C38.4106667,11.2106667 39.0293333,11.8186667 38.8906667,12.6186667 L37.4933333,20.3306667 L35.424,20.3306667 L37.0666667,11.2106667 L37.5893333,11.2106667 Z M39.52,8 C39.8826667,8.48 39.7333333,9.20533333 39.2,9.61066667 C38.656,10.0266667 37.92,9.97333333 37.5573333,9.49333333 C37.1946667,9.01333333 37.3333333,8.288 37.8773333,7.872 C38.4106667,7.46666667 39.1466667,7.52 39.52,8 Z M13.216,16.48 C13.216,18.8266667 11.0506667,20.5226667 8.42666667,20.5226667 C6.85866667,20.5226667 5.61066667,20.0533333 4.68266667,19.424 C4.94933333,18.9226667 5.472,17.9733333 5.58933333,17.7386667 C6.41066667,18.4533333 7.43466667,18.784 8.39466667,18.784 C9.632,18.784 11.072,18.3253333 11.072,16.7786667 C11.072,14.4426667 6.38933333,14.944 6.38933333,11.1573333 C6.38933333,9.55733333 7.89333333,7.46666667 10.8266667,7.46666667 C12.832,7.46666667 13.76,8.01066667 14.144,8.27733333 C14.0373333,8.58666667 13.3546667,9.792 13.28,9.952 C12.928,9.71733333 12.2346667,9.10933333 10.6666667,9.10933333 C8.98133333,9.10933333 8.56533333,10.3253333 8.56533333,10.7946667 C8.56533333,13.2266667 13.216,12.7146667 13.216,16.48 Z M60.48,12.3733333 C59.6586667,12.3733333 58.9546667,12.9066667 58.9546667,13.504 C58.9546667,15.0186667 62.624,14.7306667 62.624,17.4186667 C62.624,19.008 60.9386667,20.4266667 58.7626667,20.4266667 C57.056,20.4266667 56.0746667,19.7866667 55.6693333,19.5093333 C55.84,19.232 56.3306667,18.336 56.4266667,18.1653333 C56.96,18.5173333 57.7173333,18.9546667 58.6453333,18.9546667 C59.7333333,18.9546667 60.544,18.4213333 60.544,17.632 C60.544,16.0426667 56.928,16.448 56.928,13.8346667 C56.928,12.576 58.1333333,10.9333333 60.64,10.9333333 L60.672,10.9333333 C62.1866667,10.9333333 63.0506667,11.4133333 63.2426667,11.5626667 L62.5066667,12.9493333 C62.0693333,12.7466667 61.7066667,12.3733333 60.48,12.3733333 Z M43.3813333,12.6826667 L42.496,17.6106667 C42.1973333,19.264 43.9893333,18.9226667 44.7146667,18.7093333 C44.7146667,18.7093333 44.512,19.8186667 44.4053333,20.3413333 C44.064,20.4586667 43.3493333,20.5333333 42.848,20.5333333 C41.312,20.5333333 40.0106667,19.712 40.4373333,17.5893333 L41.312,12.6826667 L40.0106667,12.6826667 L40.2773333,11.232 L41.5786667,11.232 L42.08,8.43733333 L42.6026667,8.43733333 C43.424,8.43733333 44.0533333,9.04533333 43.904,9.84533333 L43.648,11.2426667 C44.0426667,11.232 45.92,11.232 45.92,11.232 L45.6533333,12.6826667 L43.3813333,12.6826667 Z M31.264,20.3306667 L32.2773333,14.7093333 C32.5973333,13.0026667 31.5413333,12.6613333 31.04,12.6613333 C30.016,12.6613333 28.544,13.216 28.096,15.6053333 L27.2426667,20.3306667 L25.1733333,20.3306667 L26.816,11.2213333 L27.3386667,11.2213333 C27.904,11.2213333 28.7466667,11.6693333 28.5653333,12.6613333 C29.28,11.7013333 30.1653333,11.0293333 31.8826667,11.0293333 C33.632,11.0293333 34.752,12.4373333 34.368,14.6133333 L33.3333333,20.3306667 L31.264,20.3306667 Z" id="Sanitas" fill="#FFFFFF"></path>
                        </g>
                    </g>
                </g>
            </g>
        </g>
    </g>
</svg>