<svg xmlns="http://www.w3.org/2000/svg" width="100" height="100" viewBox="0 0 100 100">
    <g fill="#D81E05" fill-rule="nonzero">
        <path d="M50.054 7.019c-24.163 0-43.75 19.587-43.75 43.75 0 24.162 19.587 43.75 43.75 43.75 24.162 0 43.75-19.588 43.75-43.75-.03-24.15-19.6-43.72-43.75-43.75zm0 81.54a37.79 37.79 0 1 1 37.79-37.79c-.022 20.862-16.928 37.768-37.79 37.79z"/>
        <path d="M49.946 62.9c-2.64 0-4.779 2.107-4.779 4.706 0 2.6 2.14 4.707 4.78 4.707 2.638 0 4.778-2.108 4.778-4.707a4.657 4.657 0 0 0-1.396-3.332 4.803 4.803 0 0 0-3.383-1.374zM49.946 27.37c-1.266 0-2.48.496-3.374 1.379a4.657 4.657 0 0 0-1.391 3.327l1.588 24.818a3.13 3.13 0 0 0 1.53 2.89 3.232 3.232 0 0 0 3.309 0 3.13 3.13 0 0 0 1.529-2.89l1.588-24.818c0-2.6-2.14-4.707-4.779-4.707z"/>
    </g>
</svg>
