<svg xmlns="http://www.w3.org/2000/svg" width="42" height="42" viewBox="0 0 42 42">
    <g fill="#D81E05" fill-rule="nonzero">
        <path d="M21.023 2.948c-10.149 0-18.375 8.227-18.375 18.375s8.226 18.375 18.375 18.375c10.148 0 18.375-8.227 18.375-18.375C39.385 11.18 31.166 2.96 21.023 2.948zm0 34.247a15.872 15.872 0 1 1 15.872-15.872c-.01 8.762-7.11 15.862-15.872 15.872z"/>
        <path d="M20.977 26.418c-1.108 0-2.007.885-2.007 1.977 0 1.091.899 1.976 2.007 1.976 1.109 0 2.008-.885 2.008-1.976a1.956 1.956 0 0 0-.587-1.4 2.017 2.017 0 0 0-1.42-.577zM20.977 11.495c-.531 0-1.041.209-1.417.58-.375.37-.586.873-.584 1.397l.667 10.423c-.032.491.215.96.642 1.214.427.256.963.256 1.39 0 .427-.255.675-.723.642-1.214l.668-10.423c0-1.092-.9-1.977-2.008-1.977z"/>
    </g>
</svg>
