<svg xmlns="http://www.w3.org/2000/svg" width="100" height="100" viewBox="0 0 100 100">
    <g fill="none" fill-rule="evenodd" transform="translate(8.333 8.333)">
        <circle cx="41.667" cy="41.667" r="41.667" fill="#007A3D"/>
        <path fill="#FFF" fill-rule="nonzero" d="M56.65 23.528l3.388 2.678a.71.71 0 0 1 .134.184c.044.06.07.133.074.208.012.093.012.188 0 .281a.807.807 0 0 1-.11.232L37.949 57.407a.66.66 0 0 1-.196.171l-.256.086a.795.795 0 0 1-.245 0 .697.697 0 0 1-.171-.135L24.96 44.97a1.223 1.223 0 0 1-.122-.22.404.404 0 0 1 0-.209.563.563 0 0 1 0-.257.685.685 0 0 1 .122-.183l2.996-3.143a.624.624 0 0 1 .881 0l8.134 8.427 18.81-25.685a.514.514 0 0 1 .392-.257.734.734 0 0 1 .477.05v.036z"/>
    </g>
</svg>
