<svg xmlns="http://www.w3.org/2000/svg" width="130" height="50" viewBox="0 0 130 50">
    <g fill="#FFFFFE" fill-rule="evenodd">
        <path d="M86.312 35.364c.515 0 .75.528.941 1.32.09.387.21.925.344 1.545.435 2.054 1.11 5.287 1.965 7.446.39 1.005.976 1.558 1.656 1.558 1.024 0 2.076-1.22 2.668-3.11.788-2.514 5.548-23.21 7.554-31.87.08-.357.124-.563.13-.573.039-.15.137-.254.252-.254.11 0 .229.092.229.289l.01.032c.149 8.766.578 24.167 1.233 25.744.359.878.91 1.339 1.593 1.339.791 0 1.742-.646 2.42-1.631.34-.5.769-1.151 1.242-1.835 1.13-1.695 2.41-3.612 2.792-4.025.563-.601 1.224-.601 2.146.035.137.086.3.203.48.337.992.722 2.642 1.71 4.496 2.222 1.23.34 2.81.407 3.92.407.716 0 1.482-.025 1.701-.041l.506-2.757c-.264.016-.983.035-1.657.035-1.189 0-2.804-.07-3.767-.4-1.142-.388-2.143-1.164-3.205-1.988-.534-.41-1.084-.836-1.682-1.233-.722-.483-1.332-.71-1.901-.71-.78 0-1.533.424-2.452 1.377-1.233 1.279-3.214 4.188-4.01 5.38-.05.076-.117.156-.212.156-.197 0-.197-.254-.197-.34-.038-3.323-.566-21.506-.926-26.93C104.422 4.485 103.678 3 102.64 3c-.833 0-2.08 1.106-2.859 4.238-1.98 7.971-6.219 25.69-8.05 34.692-.041.244-.324.244-.382 0-.197-.92-.378-1.965-.54-2.846-.553-2.776-1.02-5.173-1.95-6.49-1.058-1.494-2.622-1.59-4.524-.33-.413.28-.823.623-1.246.995-1.22 1.056-2.6 2.245-4.887 2.245H55.843l-.54 2.976h23.521c2.404 0 4.636-1.386 5.975-2.347.667-.49 1.135-.769 1.513-.769M22.5 24.16c-4.26-.239-2.938-9.145 1.59-8.897 4.632.264 3.125 9.157-1.59 8.896m5.748-10.708L27.88 15.4c-.502-1.005-1.91-2.207-4.193-2.207-4.02 0-6.404 3.323-6.801 6.865-.461 4.05 2.15 6.42 4.807 6.42 2.496 0 3.835-1.107 4.652-2.376l-.048.194c-.238 1.183.75 1.914 1.676 1.914h.807l2.232-12.759h-2.763"/>
        <path d="M65.992 24.16c-4.26-.236-2.938-9.142 1.587-8.894 4.635.261 3.125 9.154-1.587 8.893m5.745-10.705l-.365 1.946c-.5-1.002-1.911-2.207-4.188-2.207-4.025 0-6.41 3.323-6.81 6.871-.455 4.048 2.15 6.417 4.81 6.417 2.5 0 3.835-1.11 4.652-2.376l-.048.194c-.232 1.183.75 1.911 1.676 1.911h.807l2.23-12.756h-2.764M49.02 13.448h-.725L46.003 26.22h2.896l1.946-10.814c.203-1.116-.67-1.958-1.825-1.958M14.933 20.834c0-5.285-6.49-4.572-6.49-7.974 0-.659.579-2.366 2.935-2.366 2.194 0 3.16.852 3.65 1.173.111-.216 1.059-1.901 1.215-2.337-.54-.378-1.841-1.141-4.646-1.141-4.101 0-6.206 2.938-6.206 5.182 0 5.31 6.547 4.598 6.547 7.867 0 2.184-2.004 2.823-3.746 2.823a6.02 6.02 0 0 1-3.923-1.466c-.163.324-.89 1.657-1.269 2.36 1.297.88 3.052 1.535 5.24 1.535 3.678 0 6.693-2.369 6.693-5.656M81.034 15.066c1.723 0 2.22.522 2.843.817.124-.229.823-1.558 1.03-1.94-.27-.225-1.485-.89-3.603-.89h-.035c-3.51 0-5.201 2.306-5.201 4.073 0 3.65 5.058 3.085 5.058 5.32 0 1.11-1.132 1.853-2.648 1.853-1.307 0-2.36-.616-3.12-1.106-.126.245-.813 1.5-1.048 1.882.562.394 1.939 1.294 4.327 1.294 3.046 0 5.395-1.996 5.395-4.219 0-3.774-5.122-3.377-5.122-5.49 0-.837.976-1.594 2.124-1.594M57.128 15.499h3.182l.36-2.023s-2.614 0-3.167.007l.356-1.962c.207-1.126-.668-1.965-1.825-1.965h-.725l-.7 3.92h-1.818l-.375 2.023s1.335-.004 1.815-.004l-1.224 6.89c-.595 2.976 1.234 4.127 3.37 4.127.706 0 1.701-.105 2.181-.27.153-.738.436-2.296.436-2.296-1.02.312-3.517.78-3.103-1.526l1.237-6.921M40.175 26.226l2.902-.006 1.434-8.003c.554-3.05-1.02-5.033-3.462-5.033-2.407 0-3.65.938-4.645 2.295.245-1.402-.922-2.018-1.724-2.018h-.718l-2.305 12.765 2.893-.006 1.202-6.614c.62-3.363 2.683-4.127 4.12-4.127.697 0 2.169.474 1.73 2.872-.617 3.424-1.427 7.875-1.427 7.875"/>
    </g>
</svg>
