<svg xmlns="http://www.w3.org/2000/svg" width="36" height="36" viewBox="0 0 36 36">
    <g fill="none" fill-rule="evenodd" transform="translate(3 3)">
        <circle cx="15" cy="15" r="15" fill="#E6E6E6"/>
        <path fill="#979797" fill-rule="nonzero" d="M20.394 8.47l1.22.964c.02.02.036.042.048.066a.14.14 0 0 1 .027.075.387.387 0 0 1 0 .101.29.29 0 0 1-.04.084l-7.987 10.907a.238.238 0 0 1-.07.061l-.093.031a.286.286 0 0 1-.088 0 .251.251 0 0 1-.062-.048l-4.363-4.522a.44.44 0 0 1-.044-.08.145.145 0 0 1 0-.074.203.203 0 0 1 0-.093.247.247 0 0 1 .044-.066l1.078-1.132a.225.225 0 0 1 .317 0l2.928 3.034 6.772-9.246a.185.185 0 0 1 .141-.093.264.264 0 0 1 .172.018v.013z"/>
    </g>
</svg>
