<svg xmlns="http://www.w3.org/2000/svg" width="24" height="24" viewBox="0 0 24 24">
    <g fill="none" fill-rule="evenodd">
        <path stroke="#fe5000" d="M-28-28h80v80h-80z"/>
        <g fill-rule="nonzero">
            <path fill="#fe5000" d="M7.153 9.802l4.489-4.482a.603.603 0 0 1 .855 0l4.561 4.56a.573.573 0 0 1-.804.805l-3.57-3.569v7.362a.573.573 0 1 1-1.145 0V7.044l-3.57 3.568a.573.573 0 1 1-.804-.804l-.012-.006zm10.119 3.035h-.419a.94.94 0 0 0-.939.94v1.765a.167.167 0 0 1-.169.17h-7.28a.167.167 0 0 1-.168-.17v-1.774a.94.94 0 0 0-.94-.94H6.94a.94.94 0 0 0-.939.94v3.293a.941.941 0 0 0 .94.94l10.332-.001a.94.94 0 0 0 .94-.94l-.001-3.292a.94.94 0 0 0-.94-.931zm.235 2.908v1.324a.237.237 0 0 1-.235.235H7.39a.15.15 0 0 1-.032 0h-.419a.237.237 0 0 1-.235-.235v-3.3a.237.237 0 0 1 .235-.236h.419c.129 0 .233.106.233.235v2.192a.457.457 0 0 0 .457.455h8.115a.457.457 0 0 0 .457-.455v-2.192c0-.13.104-.234.233-.235h.419c.13 0 .234.106.235.235v1.977z"/>
            <path fill="#fe5000" d="M12 1.5c5.799 0 10.5 4.701 10.5 10.5S17.799 22.5 12 22.5 1.5 17.799 1.5 12 6.201 1.5 12 1.5zm0 1.286a9.214 9.214 0 1 0 0 18.428 9.214 9.214 0 0 0 0-18.428z"/>
        </g>
    </g>
</svg>
