<svg xmlns="http://www.w3.org/2000/svg" width="36" height="36" viewBox="0 0 36 36">
    <g fill="none" fill-rule="nonzero">
        <path fill="#D81E05" d="M18 2C9.163 2 2 9.163 2 18s7.163 16 16 16 16-7.163 16-16c-.01-8.832-7.168-15.99-16-16z"/>
        <path fill="#FFF" d="M21.774 18l3.839-3.84a1.17 1.17 0 0 0 .387-.89 1.25 1.25 0 0 0-.387-.915l-1.965-1.965a1.25 1.25 0 0 0-.914-.39 1.18 1.18 0 0 0-.892.39l-3.838 3.84-3.838-3.84a1.172 1.172 0 0 0-.89-.39 1.25 1.25 0 0 0-.915.39l-1.964 1.965a1.25 1.25 0 0 0-.39.915c-.004.34.138.664.39.89L14.236 18l-3.846 3.84a1.18 1.18 0 0 0-.39.892c-.002.346.14.677.39.915l1.964 1.965c.238.25.57.39.915.388a1.17 1.17 0 0 0 .89-.388l3.837-3.84 3.838 3.84c.228.252.553.393.892.388a1.25 1.25 0 0 0 .915-.388l1.964-1.965c.25-.238.39-.57.387-.915a1.178 1.178 0 0 0-.387-.892L21.775 18z"/>
    </g>
</svg>
