<svg xmlns="http://www.w3.org/2000/svg" width="220" height="85" viewBox="0 0 220 85">
    <g fill="#0079C8" fill-rule="evenodd">
        <path d="M145.485 60.721c.858 0 1.25.907 1.567 2.268.148.666.35 1.59.572 2.655.725 3.53 1.847 9.087 3.271 12.798.651 1.726 1.625 2.677 2.758 2.677 1.705 0 3.457-2.098 4.442-5.344 1.313-4.322 9.238-39.89 12.578-54.774.133-.612.207-.967.217-.983.064-.257.228-.438.418-.438.186 0 .382.159.382.498l.016.054c.248 15.065.963 41.534 2.054 44.245.598 1.508 1.514 2.3 2.652 2.3 1.318 0 2.9-1.11 4.028-2.803.567-.858 1.282-1.978 2.07-3.153 1.88-2.912 4.013-6.207 4.648-6.918.937-1.033 2.039-1.033 3.574.06.227.148.497.35.8.58 1.65 1.24 4.398 2.94 7.485 3.819 2.048.585 4.68.7 6.527.7a53.07 53.07 0 0 0 2.832-.072l.842-4.737c-.44.027-1.636.06-2.758.06-1.98 0-4.67-.12-6.273-.688-1.9-.667-3.568-2-5.337-3.416-.889-.705-1.805-1.437-2.8-2.12-1.202-.83-2.218-1.218-3.166-1.218-1.297 0-2.551.726-4.081 2.366-2.054 2.196-5.353 7.196-6.676 9.245-.085.131-.196.268-.355.268-.328 0-.328-.437-.328-.585-.063-5.71-.942-36.96-1.54-46.282-.265-4.131-1.504-6.683-3.235-6.683-1.387 0-3.462 1.902-4.76 7.284-3.297 13.699-10.354 44.151-13.403 59.62-.07.421-.54.421-.636 0-.328-1.578-.63-3.376-.9-4.89-.92-4.77-1.699-8.89-3.245-11.152-1.763-2.569-4.367-2.733-7.533-.569-.688.481-1.371 1.071-2.075 1.71-2.033 1.815-4.33 3.858-8.137 3.858H94.754l-.9 5.115h39.164c4.002 0 7.718-2.382 9.947-4.033 1.112-.841 1.89-1.322 2.52-1.322M39.237 41.465c-7.094-.41-4.892-15.715 2.647-15.29 7.713.454 5.203 15.738-2.647 15.29m9.571-18.404l-.614 3.35c-.837-1.727-3.182-3.793-6.983-3.793-6.691 0-10.662 5.71-11.323 11.798-.768 6.961 3.578 11.032 8.004 11.032 4.156 0 6.384-1.901 7.745-4.082l-.08.334c-.397 2.032 1.25 3.29 2.79 3.29h1.345l3.716-21.929h-4.6"/>
        <path d="M111.652 41.465c-7.094-.405-4.892-15.71 2.641-15.284 7.719.448 5.204 15.732-2.641 15.284m9.566-18.398l-.61 3.344c-.83-1.722-3.18-3.793-6.971-3.793-6.702 0-10.673 5.71-11.34 11.809-.757 6.956 3.58 11.027 8.01 11.027 4.161 0 6.384-1.907 7.745-4.082l-.08.333c-.386 2.033 1.25 3.284 2.79 3.284h1.345l3.711-21.922h-4.6M83.393 23.056h-1.207l-3.817 21.95h4.823l3.24-18.584c.338-1.918-1.117-3.366-3.04-3.366M87.882 15.302c-.852-1.142-2.557-1.284-3.817-.29-1.25.984-1.583 2.727-.73 3.88.847 1.158 2.562 1.29 3.806.306 1.25-.995 1.593-2.732.741-3.896M26.637 35.75c0-9.082-10.805-7.858-10.805-13.705 0-1.131.964-4.066 4.887-4.066 3.652 0 5.262 1.465 6.077 2.017.185-.372 1.763-3.268 2.022-4.017-.9-.65-3.065-1.961-7.734-1.961-6.83 0-10.334 5.049-10.334 8.907 0 9.125 10.9 7.9 10.9 13.518 0 3.754-3.335 4.852-6.236 4.852a9.84 9.84 0 0 1-6.533-2.519c-.27.558-1.482 2.847-2.112 4.055 2.16 1.513 5.082 2.64 8.725 2.64 6.125 0 11.143-4.072 11.143-9.722M136.697 25.837c2.87 0 3.695.896 4.733 1.404.206-.393 1.37-2.677 1.715-3.333-.45-.388-2.472-1.53-5.998-1.53h-.058c-5.845 0-8.661 3.962-8.661 7 0 6.273 8.423 5.3 8.423 9.142 0 1.907-1.885 3.185-4.41 3.185-2.176 0-3.928-1.06-5.194-1.901-.211.42-1.355 2.579-1.747 3.235.938.677 3.23 2.224 7.205 2.224 5.072 0 8.984-3.432 8.984-7.252 0-6.486-8.528-5.803-8.528-9.436 0-1.438 1.625-2.738 3.536-2.738M96.892 26.58h5.3l.598-3.475s-4.352 0-5.273.01l.593-3.37c.344-1.935-1.112-3.378-3.039-3.378h-1.207L92.7 23.105H89.67l-.624 3.475s2.223-.005 3.023-.005l-2.039 11.84c-.99 5.115 2.054 7.093 5.612 7.093 1.175 0 2.832-.18 3.632-.464.254-1.268.725-3.945.725-3.945-1.7.535-5.855 1.338-5.167-2.623l2.06-11.896M68.665 45.017l4.834-.011 2.387-13.754c.921-5.24-1.7-8.65-5.765-8.65-4.007 0-6.077 1.612-7.734 3.945.407-2.41-1.535-3.47-2.87-3.47h-1.196l-3.838 21.94 4.817-.011 2.002-11.366c1.032-5.781 4.468-7.093 6.86-7.093 1.16 0 3.61.815 2.88 4.935-1.027 5.885-2.377 13.535-2.377 13.535"/>
    </g>
</svg>
